<?xml version="1.0" standalone="no"?>
<!DOCTYPE svg PUBLIC "-//W3C//DTD SVG 20010904//EN"
 "http://www.w3.org/TR/2001/REC-SVG-20010904/DTD/svg10.dtd">
<svg version="1.0" xmlns="http://www.w3.org/2000/svg"
 width="260.000000pt" height="260.000000pt" viewBox="0 0 260.000000 260.000000"
 preserveAspectRatio="xMidYMid meet">
<metadata>
Created by potrace 1.11, written by Peter Selinger 2001-2013
</metadata>
<g transform="translate(0.000000,260.000000) scale(0.100000,-0.100000)"
fill="#000000" stroke="none">
<path d="M1404 2532 c-145 -91 -95 -304 71 -304 156 0 223 194 100 287 -48 38
-126 45 -171 17z"/>
<path d="M998 2482 c-63 -29 -98 -94 -93 -169 6 -82 68 -137 151 -137 165 1
217 225 69 301 -44 23 -86 25 -127 5z"/>
<path d="M1792 2317 c-42 -13 -89 -67 -98 -111 -9 -52 15 -114 58 -149 29 -24
45 -29 86 -29 80 1 128 33 152 103 40 113 -75 222 -198 186z"/>
<path d="M689 2157 c-73 -37 -99 -121 -61 -197 71 -141 299 -79 288 79 -8 105
-128 168 -227 118z"/>
<path d="M1245 2136 c-108 -26 -215 -102 -275 -196 -126 -196 -96 -464 61
-546 48 -24 129 -30 167 -10 25 13 60 58 67 86 14 53 54 96 105 111 53 16 93
-2 140 -64 138 -179 341 -92 342 147 2 195 -135 378 -341 457 -67 26 -191 33
-266 15z"/>
<path d="M840 1295 c0 -6 -21 -10 -48 -10 -26 0 -60 -3 -77 -7 -16 -5 -46 -11
-65 -14 -19 -3 -37 -9 -40 -13 -3 -4 -12 -6 -20 -6 -8 0 -30 -7 -47 -17 -18
-10 -33 -15 -33 -11 0 4 -6 -2 -14 -13 -8 -10 -17 -16 -21 -13 -7 8 -25 -6
-117 -95 -37 -35 -65 -66 -62 -68 2 -3 -5 -13 -16 -23 -11 -10 -20 -22 -20
-28 0 -5 -9 -21 -20 -37 -11 -15 -17 -30 -13 -33 3 -4 1 -13 -6 -20 -6 -8 -12
-26 -13 -41 -1 -14 -5 -26 -8 -26 -3 0 -7 -19 -9 -42 -1 -23 -5 -45 -10 -48
-9 -7 -8 -176 1 -186 5 -4 8 -22 8 -40 0 -18 4 -35 8 -38 5 -3 9 -18 10 -34 0
-18 13 -42 31 -63 17 -18 31 -37 31 -41 0 -26 133 -134 150 -123 6 4 10 1 10
-4 0 -6 5 -11 10 -11 6 0 30 -9 52 -20 23 -11 54 -20 70 -20 15 0 28 -4 28 -9
0 -4 15 -7 33 -6 17 1 38 -3 45 -9 10 -7 16 -6 22 3 4 7 10 9 13 4 3 -5 31 -7
62 -5 34 2 62 -1 71 -9 8 -6 14 -7 14 -2 0 5 14 9 30 8 17 0 30 -2 30 -5 0 -8
40 -5 70 5 14 4 36 9 50 10 14 1 36 7 50 12 14 6 28 9 32 6 4 -2 15 11 25 29
14 26 18 61 19 173 1 77 2 149 3 161 1 14 14 27 41 39 40 18 40 18 40 75 0 55
-1 58 -32 71 -18 8 -37 12 -43 10 -9 -3 -323 -3 -365 0 -33 2 -95 -11 -106
-23 -21 -21 -23 -62 -5 -102 9 -21 20 -38 24 -37 25 4 47 0 43 -7 -3 -5 5 -8
17 -8 17 1 22 -5 24 -24 0 -14 2 -27 3 -30 2 -5 4 -33 11 -125 l3 -50 -32 -1
c-18 -1 -32 3 -32 8 0 4 -7 8 -15 8 -29 0 -133 129 -120 150 3 5 0 10 -5 12
-6 2 -13 18 -15 36 -2 18 -8 40 -13 49 -6 9 -6 29 -1 46 5 16 5 37 0 46 -9 18
-6 104 4 121 3 5 1 10 -5 10 -6 0 -3 11 6 25 9 14 14 28 11 32 -4 3 0 18 9 34
8 16 15 31 15 34 0 18 31 75 40 75 6 0 9 5 7 12 -2 6 10 26 26 43 70 72 187
105 211 60 6 -11 19 -36 30 -55 10 -19 20 -37 20 -40 4 -21 49 -100 57 -100 5
0 7 -4 4 -9 -6 -10 51 -21 60 -12 3 3 10 7 15 7 5 1 13 2 19 3 26 3 46 89 29
123 -6 10 -5 19 1 23 6 4 8 11 4 16 -3 6 -7 42 -8 81 -2 68 -4 73 -36 99 -19
16 -35 27 -38 25 -2 -2 -18 0 -35 6 -18 5 -47 9 -64 9 -19 -1 -33 3 -33 10 0
9 -4 9 -14 0 -10 -9 -16 -9 -21 -1 -5 8 -11 8 -19 1 -9 -7 -16 -7 -24 1 -7 7
-12 8 -12 3z"/>
<path d="M1250 1221 c-28 -75 -12 -121 47 -142 l28 -9 0 -228 c0 -125 3 -229
7 -232 6 -5 12 -120 8 -145 -1 -5 -1 -53 0 -107 l1 -96 -29 -7 c-30 -6 -47
-21 -69 -61 -9 -17 -8 -27 7 -52 10 -16 27 -32 37 -35 10 -3 103 -5 206 -6
129 0 193 -4 203 -12 10 -8 14 -8 14 0 0 6 10 11 23 11 24 0 67 40 67 64 0 38
-46 93 -74 87 -27 -6 -32 22 -30 176 1 87 3 160 3 163 1 3 28 4 61 3 33 -1 62
2 64 5 5 8 114 8 122 0 3 -3 6 -52 7 -109 1 -57 6 -109 10 -116 4 -6 3 -15 -3
-18 -8 -5 -8 -11 -1 -19 6 -7 9 -23 6 -35 -5 -25 -25 -54 -32 -47 -8 8 -63
-16 -58 -24 3 -5 1 -10 -5 -12 -5 -1 -14 -17 -19 -35 -8 -27 -6 -34 18 -57
l28 -27 241 3 c228 3 242 4 256 23 9 11 15 31 16 45 0 33 -41 83 -71 85 -14 1
-23 8 -21 15 2 7 -3 17 -10 21 -8 5 -9 9 -2 9 7 0 9 11 6 25 -2 14 0 25 4 25
5 0 10 96 11 212 3 278 11 440 21 447 5 3 8 20 7 38 0 18 1 30 3 28 3 -2 17 4
32 15 32 23 54 88 36 108 -47 51 -29 48 -278 47 -245 -1 -271 -6 -282 -48 -6
-24 2 -68 16 -84 6 -8 25 -20 43 -29 29 -13 32 -19 30 -57 -1 -23 3 -48 9 -56
8 -11 8 -13 0 -8 -12 7 -13 -77 -2 -89 4 -3 3 -17 -2 -30 -6 -15 -6 -24 0 -24
10 0 1 -32 -11 -40 -4 -3 -61 -5 -126 -5 -115 1 -118 2 -117 23 0 12 -2 22 -6
22 -3 0 -6 9 -6 19 0 11 4 17 8 15 4 -3 8 -1 8 5 0 5 -5 13 -10 16 -6 4 -7 12
-3 18 4 7 8 19 8 27 0 8 4 21 9 29 6 10 5 12 -2 7 -7 -4 -12 -2 -12 3 0 6 3
11 8 11 4 0 6 21 4 46 -4 47 13 73 49 74 18 0 49 56 45 80 -6 35 -18 59 -34
66 -9 4 -111 8 -227 10 -115 1 -226 4 -246 7 -34 3 -37 1 -49 -32z"/>
</g>
</svg>
